<?xml version="1.0" encoding="UTF-8"?>
<svg width="1200pt" height="1200pt" version="1.1" viewBox="0 0 1200 1200" xmlns="http://www.w3.org/2000/svg">
 <path  d="m1099.7 567c-11.762 0-55.559 5.8789-83.52 15.359-8.0391-12.359-21.602-21.238-37.199-23.281-8.7617-69.359-36-132.84-76.559-185.64 9.3594-12.48 12.719-28.199 9.6016-42.602 26.398-12.961 61.68-39.84 69.961-48.238 15.719-15.719 15.719-41.281 0-57.121-15.719-15.719-41.398-15.602-57.121 0.12109-8.2812 8.2812-35.16 43.559-48.238 69.84-14.16-3-29.641 0.12109-42.121 9.3594-52.801-41.52-116.52-69.48-186.24-78.84-2.6406-14.52-11.398-27-23.039-34.68 9.4805-27.84 15.359-71.762 15.359-83.52 0-22.32-18.121-40.441-40.441-40.441-22.199 0-40.32 18.121-40.32 40.441 0 11.762 5.8789 55.68 15.359 83.52-11.52 7.4414-20.16 19.68-23.039 33.84-70.801 8.2812-135.84 35.879-189.72 77.281-11.762-7.3203-25.68-9.6016-38.52-6.9609-12.961-26.52-40.078-60.359-48.48-68.762-7.5664-7.5547-17.766-10.676-28.445-10.676h-0.12109c-10.801 0-20.879 3.1211-28.559 10.68-15.719 15.719-15.719 41.16 0.12109 57 8.2812 8.2812 43.441 34.559 69.84 47.641-2.6406 12.719-0.48047 26.281 6.6016 38.039-42.719 54-71.281 119.52-80.039 191.28-12.84 3.3594-23.879 11.16-30.719 21.719-27.961-9.3594-71.762-15.359-83.52-15.359-22.32 0-40.441 18.121-40.441 40.441 0 22.199 18.121 40.32 40.441 40.32 11.762 0 55.559-5.8789 83.52-15.359 6.8398 10.559 17.762 18.48 30.602 21.961 8.7617 71.762 37.32 137.52 80.039 191.64-4.5586 7.5586-7.4414 16.078-7.8008 25.078-0.23828 4.4414 0.35938 8.6406 1.1992 12.84-26.281 13.078-61.441 39.84-69.84 48.121-15.719 15.84-15.719 41.398 0 57.238 7.9219 7.8008 18.238 11.762 28.559 11.762s20.641-3.9609 28.559-11.879c8.2812-8.2812 35.039-43.32 48.121-69.719 3.4805 0.71875 6.9609 1.1992 10.559 1.1992 0.83984 0 1.5586 0 2.3984-0.12109 9.1211-0.35938 17.879-3.2383 25.559-7.9219 54 41.641 119.28 69.359 190.56 77.641 2.8789 13.922 11.281 25.801 22.559 33.238-9.4805 27.84-15.359 71.641-15.359 83.52 0 22.199 18.121 40.32 40.32 40.32 22.32 0 40.32-18.121 40.32-40.32 0-11.879-5.8789-55.68-15.238-83.52 11.52-7.5586 20.16-19.801 22.922-34.078 69.961-9.3594 133.92-37.441 186.72-79.199 9.3594 6.7188 20.281 10.32 31.199 10.32 3.4805 0 6.9609-0.35938 10.32-1.0781 12.84 26.52 40.078 64.801 48.48 73.199 7.6797 7.6797 17.762 15.359 28.559 15.359 10.801 0 21-7.6797 28.559-15.359 15.719-15.719 15.719-43.801 0-59.52-8.3984-8.2812-43.441-35.641-69.84-48.602 0.83984-4.1992 1.4414-8.7617 1.1992-13.199-0.48047-10.801-4.3203-21.121-10.68-29.641 40.559-52.801 67.68-116.52 76.441-185.88 15.602-2.1602 29.039-11.039 37.078-23.398 27.961 9.4805 71.762 15.359 83.52 15.359 22.32 0 40.441-18.121 40.441-40.441 0.003906-22.203-18.117-40.324-40.438-40.324zm-522.48 306.36c-8.0391 6-14.039 15-16.32 25.32-51.84-6.6016-99.602-26.641-139.44-56.641 6.2383-9.4805 8.5195-21 6.7188-31.559 24.84-8.3984 53.16-32.16 53.52-32.52 0.35938-0.48047 28.68-34.199 34.441-60.359 3.6016 0.96094 7.3203 1.6797 11.16 1.6797 11.039 0 24.48-4.3203 32.879-12.719 0.60547 0.23828 3.8438 0.35938 3.8438 0.59766v0.12109c0 15.602 6.3594 29.398 18.602 36.719-14.762 22.441-19.801 67.199-19.801 67.801 0 0.48047 2.2773 38.16 14.398 61.559zm4.4414-403.32c-11.641 6.6016-20.039 18.84-21.48 33.121-1.8008 0.71875-3.6016 1.4414-5.3984 2.2812-10.801-8.7617-24.719-11.641-37.32-8.6406-1.8008-8.6406-6-17.641-10.078-25.078-7.4414-13.922-18-29.398-24.602-36-0.35938-0.35938-29.398-24.719-54.48-32.762 1.5586-10.68-1.0781-22.078-7.8008-31.32 40.078-30.238 87.961-50.641 140.04-57.238 2.1602 11.398 8.7617 21.48 17.762 27.719-11.762 23.52-15 60.359-15 60.84 0 0.59766 3.8398 44.52 18.359 67.078zm190.68-65.758c-24.961 8.3984-53.281 32.16-53.762 32.52-0.35938 0.35938-28.68 34.199-34.32 60.359-13.078-3.6016-28.078-0.71875-39.238 8.7617-1.5586-0.71875-3.2383-1.4414-4.8008-2.1602-1.3203-14.039-9.2383-26.281-20.398-33.121 14.762-22.32 18.719-67.078 18.719-67.68 0-0.48047-3.3594-38.16-15.359-61.68 8.2812-6.2383 14.398-15.602 16.559-26.398 51.84 7.3203 99.359 28.199 138.84 59.039-5.8789 9.2383-8.0391 20.156-6.2383 30.359zm5.3984 435.48c-39.48 30.48-86.879 51.121-138.48 58.441-2.5195-10.559-8.7617-19.68-17.281-25.68 11.762-23.52 15-60.238 15-60.719 0-0.60156-3.8398-44.52-18.359-67.078 12.84-7.1992 21.961-21.359 21.961-37.441 0-0.23828-0.12109-0.48047-0.12109-0.71875 0.48047-0.12109 0.96094-0.35938 1.4414-0.48047 0.12109 0.12109 0.12109 0.35937 0.35938 0.48047 8.3984 8.3984 19.68 12.719 30.719 12.719 3.4805 0 6.7188-0.60156 9.9609-1.3203 5.2812 26.16 33.961 60.48 34.559 61.078 6.7188 6.6016 22.199 17.16 36 24.602 5.6406 3 12.121 6 18.602 8.1602-1.3164 9.3555 0.60156 19.316 5.6406 27.957zm-136.56-233.28c0 23.762-19.32 42.961-43.078 42.961-23.641 0-42.961-19.199-42.961-42.961s19.32-42.961 42.961-42.961c23.758 0 43.078 19.199 43.078 42.961zm-211.56-117.6c6.4805 6.4805 22.32 17.398 36 24.602 7.1992 3.9609 15.961 8.0391 24.359 9.9609-3.6016 13.078-0.71875 27.961 8.7617 39-0.71875 1.6797-1.1992 3.2383-1.8008 4.9219-14.281 1.0781-26.641 9.1211-33.48 20.398-22.32-14.879-67.078-18.719-67.68-18.719-0.60156 0-38.16 3.3594-61.68 15.359-6.4805-8.7617-16.441-14.879-27.84-16.801 6.8398-52.199 27.48-100.08 58.078-139.92 7.5586 5.3984 16.559 8.2812 25.441 8.2812 2.5195 0 5.0391-0.23828 7.4414-0.60156 8.3984 24.84 32.035 53.16 32.398 53.52zm-94.68 140.4c23.52 11.641 60.238 14.879 60.84 14.879 0.60156 0 44.398-3.8398 67.078-18.359 6.8398 12.359 20.281 21.121 35.641 21.719 0.48047 1.0781 0.96094 2.1602 1.4414 3.1211-10.078 11.039-13.559 26.16-10.32 39.48-26.281 5.3984-60.719 34.199-61.078 34.68-0.48047 0.35938-24.719 29.281-32.762 54.48-10.441-1.5586-21.48 0.83984-30.602 7.0781-30.719-39.602-51.602-87.359-58.801-139.32 11.879-1.918 22.082-8.5195 28.562-17.758zm468.24 150.24c-8.3984-24.961-32.039-53.281-32.398-53.641-0.48047-0.48047-34.199-28.68-60.48-34.441 3.9609-14.16 0.35938-30.602-10.922-42 0.23828-0.60156 0.60156-1.0781 0.83984-1.6797 15.48-0.12109 29.281-8.6406 36.602-20.762 22.441 14.879 67.078 18.719 67.68 18.719 0.60156 0 38.281-3.3594 61.68-15.359 5.7617 7.5586 14.16 13.32 23.762 15.84-6.9609 51.602-27.359 99-57.48 138.6-9-5.2773-19.562-7.0781-29.281-5.2773zm62.16-194.04c-23.52-11.641-60.238-15-60.84-15-0.48047 0-44.398 3.9609-66.961 18.48-6.9609-12.359-20.398-21.121-35.762-21.84-0.35937-1.0781-0.71875-2.2812-1.1992-3.3594 9.9609-10.922 13.32-25.801 10.078-39.121 8.6406-1.8008 17.762-6 25.199-10.078 13.68-7.1992 29.398-18.121 36-24.602 6.4805-6.4805 17.281-22.32 24.602-36 3-5.5195 6-12 8.1602-18.48 1.9219 0.23828 3.9609 0.48047 5.8789 0.48047 7.9219 0 15.961-2.2812 22.922-6.6016 30 39.84 50.039 87.359 56.762 139.08-10.199 2.6406-19.082 8.7617-24.84 17.043z" fill="lightgray"/>
</svg>
