<?xml version="1.0" encoding="UTF-8"?>
<svg width="1200pt" height="1200pt" version="1.1" viewBox="0 0 1200 1200" xmlns="http://www.w3.org/2000/svg">
 <g fill="#bae397">
  <path d="m390.72 901.8c146.28 0 317.28-5.8789 480.24-25.68-26.762 36.719-62.879 69.602-101.52 69.359l-531.6-2.8789c-21.48-0.12109-42.719-3.8398-62.879-10.922l-8.7617-3.1211c-10.801-3.8398-20.16-16.801-27.359-32.52 66.125 3 153.36 5.7617 251.88 5.7617z"/>
  <path d="m1103.8 752.64-13.801 3.6016-6.1211 1.5586-154.56 41.039c-12.238 3.3594-22.078 15.48-29.762 30.602-5.6406 11.039-12.48 22.922-20.398 34.801-277.68 34.559-580.32 28.32-744.96 20.879-6.9609-18.359-11.16-38.16-11.879-50.762 83.16 12.719 180.84 14.52 271.8 11.52l-0.83984-46.441-301.56-14.758s97.32-210 129.36-430.68l167.4 138.72-1.1992-229.2c-0.12109-4.9219 3.8398-9 8.7617-9s9 3.8398 9 8.7617l7.0781 582.24c155.04-6.1211 286.44-25.199 286.44-25.199l364.44-71.52 7.6797-1.5586 1.8008-0.35938 5.5195-1.0781 16.922-3.3594c23.758 1.3164 8.8789 10.195 8.8789 10.195z"/>
  <path d="m470.16 319.56s4.8008 250.32-54.602 452.04l253.92 13.078-40.32-321.6z"/>
  <path d="m887.76 782.64-171.36 0.23828c-9.7188-188.64-62.52-329.04-63.48-331.56l60.719 86.52c14.039 41.762 25.32 90.359 24.121 136.32l-0.23828 8.8789 8.8789 0.23828c0.71875 0 30.359 0.96094 73.441 5.5195z"/>
  <path d="m1050.4 733.68c-77.281-33.48-174.24-48.238-237.6-54.602-39.719-3.9609-66.238-4.6797-66.238-4.6797 0.96094-37.32-5.8789-76.199-16.32-112.68-26.281-92.762-75.121-170.88-75.121-170.88z"/>
 </g>
</svg>
